<?xml version='1.0' encoding='utf-8'?>
<svg xmlns="http://www.w3.org/2000/svg" xmlns:xlink="http://www.w3.org/1999/xlink" enable-background="new 0 0 42.6 42.5" version="1.1" viewBox="0 0 42.6 42.5">
<symbol id="ao" viewBox="-0.039 -11.9 16.844 11.9">
			<radialGradient id="af" cx="-1005.7" cy="-1158.5" r="10.833" gradientTransform="matrix(.9912 -.1327 -.1327 -.9912 848.91 -1284.5)" gradientUnits="userSpaceOnUse">
			<stop stop-color="#fff" offset="0"/>
			<stop stop-color="#fff" stop-opacity="0" offset="1"/>
		</radialGradient>
		<path d="m15.65-3.55c0.1 0.433 0.083 0.917-0.05 1.45-0.1 0.4-0.267 0.75-0.5 1.05l1.1-1.25c0.333-0.467 0.533-1.2 0.6-2.2 0.034-0.467-0.1-0.933-0.4-1.4l-0.2 1c-0.034 0.2-0.1 0.383-0.2 0.55l-0.15 0.2 0.15-1.15c0.067-0.534-0.05-1.267-0.35-2.2l0.05 1.35c0 0.3-0.117 0.7-0.35 1.2l-0.35 0.6c0.133-0.6 0.15-1.15 0.05-1.65s-0.216-0.917-0.35-1.25c-0.133 0.6-0.217 1.217-0.25 1.85-0.033 0.367-0.183 0.733-0.45 1.1l-0.35 0.4-0.15-2.05c-0.067-0.8-0.217-1.483-0.45-2.05-0.133 0.467-0.216 0.967-0.25 1.5-0.033 0.3-0.15 0.683-0.35 1.15l-0.35 0.55v-2.15c0-0.667-0.133-1.633-0.4-2.9l-0.2 2.95c-0.033 0.8-0.2 1.4-0.5 1.8l-0.3-2.05-0.05 0.95c-0.033 0.3-0.133 0.65-0.3 1.05l-0.25 0.5-1.25-4c0.033 0.733 0 1.483-0.1 2.25-0.067 0.467-0.167 0.933-0.3 1.4l-0.2 0.55-0.8-2.65-0.15 0.75-0.6 1.9-0.15-0.85c-0.1-0.5-0.133-0.85-0.1-1.05l-0.3 0.6c-0.133 0.233-0.233 0.55-0.3 0.95l-0.05 0.55-0.1-1.5c0.066-0.6 0.15-1.1 0.25-1.5l-0.45 0.85c-0.2 0.333-0.367 0.85-0.5 1.55l-0.15 1c-0.2-0.267-0.383-0.667-0.55-1.2-0.2-0.567-0.25-1.217-0.15-1.95-0.1 0.233-0.2 0.6-0.3 1.1v2.25c-0.2-0.2-0.533-1.117-1-2.75-0.3-1.033-0.317-2.25-0.05-3.65 0.133-0.733 0.3-1.35 0.5-1.85-0.233 0.2-0.517 1.25-0.85 3.15-0.367 1.9-0.4 3.65-0.1 5.25-0.233-0.433-0.417-0.95-0.55-1.55-0.133-0.567-0.133-1.25 0-2.05-0.167 0.3-0.283 0.817-0.35 1.55-0.033 0.7 0.05 1.533 0.25 2.5-0.433-1.133-0.7-2.383-0.8-3.75-0.133-1.367 0.117-2.534 0.75-3.5-0.566 0.433-0.933 1.566-1.1 3.4-0.167 1.833-0.066 3.167 0.3 4l-0.3-0.5c-0.233-0.333-0.4-0.883-0.5-1.65-0.133 0.333-0.117 1 0.05 2s0.65 1.783 1.45 2.35l-0.45-0.65c-0.167-0.167-0.3-0.433-0.4-0.8l0.5 0.65c0.133 0.2 0.3 0.333 0.5 0.4l-0.35-0.65c-0.133-0.267-0.133-0.5 0-0.7 0.167 0.367 0.367 0.717 0.6 1.05 0.267 0.367 0.566 0.6 0.9 0.7-0.2-0.3-0.383-0.65-0.55-1.05-0.167-0.433-0.233-0.717-0.2-0.85l0.7 1.1c0.267 0.467 0.534 0.767 0.8 0.9l-0.25-0.9c-0.167-0.467-0.167-0.833 0-1.1l0.85 1.35c0.367 0.5 0.767 0.867 1.2 1.1l-0.7-1.2c-0.233-0.467-0.333-0.817-0.3-1.05l0.5 0.9c0.233 0.4 0.533 0.733 0.9 1l-0.2-0.9c-0.1-0.433-0.133-0.817-0.1-1.15l0.45 0.85c0.2 0.434 0.6 0.983 1.2 1.65-0.1-0.1-0.233-0.55-0.4-1.35-0.167-0.767-0.233-1.333-0.2-1.7l0.75 1.35c0.3 0.5 0.633 0.817 1 0.95l-0.4-0.6c-0.1-0.167-0.133-0.517-0.1-1.05 0-0.233 0.017-0.466 0.05-0.7 0.033 0.167 0.217 0.566 0.55 1.2 0.3 0.633 0.783 1.283 1.45 1.95l-0.45-1.3c-0.167-0.467-0.183-0.983-0.05-1.55l1 1.05c-0.1-0.4-0.15-0.784-0.15-1.15 0-0.4 0.083-0.617 0.25-0.65 0.333 0.7 0.533 1.217 0.6 1.55 0.034 0.367 0.233 0.8 0.6 1.3-0.133-0.467-0.167-0.967-0.1-1.5 0.033-0.567 0.183-1.017 0.45-1.35 0.133 0.233 0.15 0.65 0.05 1.25l-0.2 1.25 0.7-1.1 0.45-1.1c0.167 0.233 0.2 0.483 0.1 0.75-0.1 0.433-0.267 0.817-0.5 1.15l0.85-0.75 0.85-1.05c-0.1 0.534-0.316 1.05-0.65 1.55l-0.8 1.2 0.6-0.35c0.466-0.267 0.85-0.55 1.15-0.85 0.467-0.433 0.817-1.067 1.05-1.9z" clip-rule="evenodd" fill="url(#af)" fill-rule="evenodd"/>
</symbol>
<symbol id="ap" viewBox="0.05 -21.373 18.366 21.172">
		<path d="m16-2.5c-0.696 1.043-1.579 1.81-2.65 2.3 0.5-0.208 1-0.475 1.5-0.8 2.7-1.867 3.867-4.717 3.5-8.55-0.3-3.2-1.417-6.034-3.35-8.5-1.367-1.733-2.45-2.6-3.25-2.6-0.767 0.3-1.433 0.333-2 0.1-1.133-0.5-2.05-0.767-2.75-0.8-0.967-0.1-1.9 0.133-2.8 0.7-0.4 0.233-1.017 0.3-1.85 0.2-0.767-0.133-1.483 0.1-2.15 0.7-0.1 0.3-0.15 0.65-0.15 1.05v0.5l0.3-1.05c0.167-0.433 0.417-0.65 0.75-0.65-0.167 0.333-0.283 0.7-0.35 1.1-0.067 0.233-0.067 0.55 0 0.95l0.1 0.55 0.15-0.8c0.067-0.4 0.2-0.583 0.4-0.55v0.4l0.35 1.45 0.25-1.9c0.133-0.566 0.333-0.767 0.6-0.6v0.75l0.15 0.8 0.3-1.45c0.133-0.433 0.284-0.483 0.45-0.15l-0.05 1.75c0 0.434 0.066 0.85 0.2 1.25l0.2 0.5v-2.4c0-0.667 0.25-1.1 0.75-1.3-0.1 0.4-0.15 0.816-0.15 1.25l0.1 0.9 0.25-1.35c0.067-0.333 0.25-0.583 0.55-0.75v1.7c0 0.333 0.117 0.767 0.35 1.3l0.3 0.75v-2.5c0.033-0.633 0.15-1.05 0.35-1.25l0.05 1c0.033 0.3 0.117 0.567 0.25 0.8l0.15 0.2v-1.25c0-0.433 0.083-0.817 0.25-1.15 0.1 0.533 0.3 1.167 0.6 1.9 0.2 0.433 0.45 0.883 0.75 1.35l0.4 0.55-0.65-3.4 0.55 0.75c0.233 0.3 0.5 0.783 0.8 1.45l0.35 0.9-0.05-0.95c-0.1-0.7-0.267-1.267-0.5-1.7-0.233-0.467-0.216-0.617 0.05-0.45 0.033 0.033 0.35 0.283 0.95 0.75 0.067 0.067 0.483 0.183 1.25 0.35 0.667 0.167 1.35 0.65 2.05 1.45 1.167 1.333 2.15 3.367 2.95 6.1 0.667 2.4 0.817 4.417 0.45 6.05-0.2 0.8-0.533 1.567-1 2.3z" clip-rule="evenodd" fill-rule="evenodd"/>
</symbol>
<symbol id="aq" viewBox="-0.006 -0.55 2.521 0.522">
		<path d="m0.35-0.3c0.8 0.233 1.383 0.316 1.75 0.25 0.6-0.1 0.55-0.15-0.15-0.15-0.367 0-0.917-0.117-1.65-0.35l-0.2 0.05c-0.2 0-0.117 0.067 0.25 0.2z" clip-rule="evenodd" fill="#fff" fill-rule="evenodd"/>
</symbol>
<symbol id="ar" viewBox="0 -1.118 6.85 1.118">
		<path d="m0-0.75c0.933 0.5 1.817 0.55 2.65 0.15 0.167-0.1 0.317-0.083 0.45 0.05 0.167 0.2 0.367 0.316 0.6 0.35 0.5 0.034 0.983-0.017 1.45-0.15l1.7 0.35-0.8-0.4c-0.733-0.367-1.767-0.6-3.1-0.7-1.333-0.067-2.317 0.05-2.95 0.35z" clip-rule="evenodd" fill-rule="evenodd"/>
</symbol>
<symbol id="as" viewBox="-0.029 -11.9 16.074 11.9">
			<radialGradient id="ag" cx="-275.08" cy="-293.51" r="10.369" gradientTransform="matrix(.9994 -.035 -.035 -.9994 270.1 -306)" gradientUnits="userSpaceOnUse">
			<stop stop-color="#fff" offset="0"/>
			<stop stop-color="#fff" stop-opacity="0" offset="1"/>
		</radialGradient>
		<path d="m15.25-1.6c0.367-0.433 0.617-1.117 0.75-2.05 0.1-0.434 0.033-0.883-0.2-1.35l-0.3 0.95-0.4 0.65 0.25-1.05c0.1-0.5 0.05-1.216-0.15-2.15 0.033 0.367 0.017 0.8-0.05 1.3-0.033 0.3-0.183 0.667-0.45 1.1l-0.4 0.55c0.167-0.533 0.233-1.05 0.2-1.55s-0.1-0.917-0.2-1.25c-0.2 0.567-0.35 1.15-0.45 1.75-0.067 0.367-0.233 0.7-0.5 1l-0.4 0.35c0.066-0.566 0.1-1.217 0.1-1.95 0-0.767-0.083-1.45-0.25-2.05-0.167 0.467-0.3 0.95-0.4 1.45-0.033 0.3-0.183 0.65-0.45 1.05l-0.4 0.5 0.25-2.05c0.034-0.633 0-1.567-0.1-2.8l-0.45 2.8c-0.067 0.467-0.2 0.883-0.4 1.25l-0.25 0.4v-0.95l-0.15-1-0.1 0.9c-0.033 0.267-0.167 0.583-0.4 0.95l-0.3 0.45-0.8-3.9c-0.033 0.667-0.133 1.367-0.3 2.1l-0.65 1.85-0.5-2.6-0.95 2.45-0.1-0.85c-0.033-0.467-0.033-0.8 0-1l-0.35 0.5c-0.133 0.2-0.25 0.5-0.35 0.9l-0.1 0.5 0.05-1.45c0.1-0.533 0.233-1 0.4-1.4l-0.55 0.8c-0.2 0.3-0.4 0.783-0.6 1.45l-0.25 0.95c-0.167-0.267-0.3-0.683-0.4-1.25-0.133-0.533-0.117-1.15 0.05-1.85-0.133 0.2-0.267 0.55-0.4 1.05l-0.25 2.15c-0.167-0.233-0.383-1.15-0.65-2.75-0.3-1.567 0.017-3.283 0.95-5.15-0.233 0.133-0.617 1.1-1.15 2.9-0.533 1.767-0.717 3.417-0.55 4.95l-0.4-1.5c-0.067-0.567 0-1.217 0.2-1.95-0.167 0.267-0.317 0.733-0.45 1.4-0.133 0.7-0.133 1.517 0 2.45-0.333-1.1-0.483-2.317-0.45-3.65s0.383-2.434 1.05-3.3c-0.6 0.4-1.05 1.467-1.35 3.2-0.333 1.733-0.367 3.017-0.1 3.85l-0.25-0.55c-0.167-0.333-0.267-0.867-0.3-1.6-0.167 0.3-0.217 0.933-0.15 1.9 0.067 0.966 0.45 1.75 1.15 2.35l-0.35-0.65c-0.133-0.2-0.25-0.467-0.35-0.8l0.45 0.65c0.133 0.2 0.283 0.35 0.45 0.45l-0.25-0.65c-0.1-0.267-0.083-0.5 0.05-0.7l0.5 1.1c0.167 0.333 0.417 0.583 0.75 0.75-0.167-0.3-0.317-0.65-0.45-1.05-0.1-0.433-0.133-0.717-0.1-0.85l0.55 1.1c0.233 0.467 0.467 0.783 0.7 0.95l-0.15-0.9c-0.1-0.434-0.067-0.784 0.1-1.05 0.167 0.4 0.4 0.85 0.7 1.35 0.3 0.533 0.633 0.933 1 1.2l-0.5-1.2c-0.2-0.467-0.283-0.8-0.25-1l0.4 0.9c0.2 0.367 0.467 0.7 0.8 1l-0.1-0.85c-0.067-0.433-0.067-0.816 0-1.15 0.1 0.167 0.217 0.467 0.35 0.9 0.133 0.4 0.45 0.95 0.95 1.65-0.067-0.1-0.133-0.533-0.2-1.3-0.1-0.767-0.117-1.317-0.05-1.65l0.55 1.35c0.267 0.5 0.566 0.833 0.9 1l-0.3-0.6c-0.1-0.167-0.117-0.5-0.05-1 0.033-0.233 0.067-0.45 0.1-0.65l0.45 1.15c0.233 0.667 0.633 1.333 1.2 2l-0.3-1.25c-0.133-0.467-0.1-0.967 0.1-1.5l0.8 1.05v-1.1c0.033-0.367 0.133-0.55 0.3-0.55 0.267 0.667 0.4 1.167 0.4 1.5 0.034 0.367 0.184 0.8 0.45 1.3-0.033-0.433-0.017-0.917 0.05-1.45 0.1-0.533 0.3-0.933 0.6-1.2 0.067 0.233 0.033 0.633-0.1 1.2l-0.3 1.15 0.75-1 0.55-1c0.133 0.233 0.15 0.483 0.05 0.75l-0.6 1.05 0.9-0.65 0.9-0.95c-0.133 0.5-0.383 0.983-0.75 1.45l-0.95 1.05 0.6-0.25c0.5-0.233 0.9-0.467 1.2-0.7 0.5-0.4 0.9-0.967 1.2-1.7 0.033 0.4-0.033 0.85-0.2 1.35-0.133 0.367-0.316 0.684-0.55 0.95l1.15-1.1z" clip-rule="evenodd" fill="url(#ag)" fill-rule="evenodd"/>
</symbol>
<symbol id="at" viewBox="0 -20.966 16.6 20.716">
		<path d="m12.45-0.8c2.733-1.5 4.117-4.1 4.15-7.8 0-3.1-0.8-5.9-2.4-8.4-1.133-1.8-2.083-2.733-2.85-2.8-0.733 0.233-1.367 0.216-1.9-0.05-1.067-0.566-1.917-0.917-2.55-1.05-0.9-0.167-1.8-0.017-2.7 0.45-0.4 0.2-1 0.2-1.8 0-0.733-0.2-1.45-0.05-2.15 0.45-0.1 0.3-0.167 0.633-0.2 1l-0.05 0.5 0.35-1.05c0.2-0.367 0.483-0.534 0.85-0.5-0.2 0.3-0.367 0.633-0.5 1-0.067 0.233-0.1 0.55-0.1 0.95l0.05 0.5 0.25-0.75c0.1-0.367 0.25-0.533 0.45-0.5l-0.05 0.35 0.2 1.45 0.4-1.75c0.2-0.567 0.417-0.75 0.65-0.55l-0.1 0.7 0.05 0.8 0.45-1.35c0.167-0.4 0.316-0.433 0.45-0.1l-0.2 1.65c-0.034 0.4-0.017 0.8 0.05 1.2l0.1 0.5 0.25-2.25c0.066-0.667 0.367-1.066 0.9-1.2-0.167 0.4-0.267 0.783-0.3 1.15v0.9l0.35-1.3c0.133-0.3 0.333-0.517 0.6-0.65l-0.15 1.65c-0.033 0.3 0.033 0.733 0.2 1.3l0.25 0.75 0.2-2.4c0.1-0.6 0.25-0.983 0.45-1.15-0.033 0.133-0.033 0.433 0 0.9 0 0.3 0.05 0.567 0.15 0.8l0.1 0.25 0.1-1.25c0.033-0.4 0.15-0.75 0.35-1.05 0.067 0.533 0.217 1.15 0.45 1.85 0.133 0.433 0.317 0.883 0.55 1.35l0.3 0.6-0.25-3.3 0.45 0.75c0.2 0.3 0.4 0.783 0.6 1.45l0.3 0.9v-0.9c-0.034-0.7-0.15-1.267-0.35-1.7-0.167-0.467-0.133-0.6 0.1-0.4 0.066 0.033 0.35 0.3 0.85 0.8 0.067 0.1 0.45 0.267 1.15 0.5 0.633 0.2 1.25 0.717 1.85 1.55 1 1.367 1.733 3.4 2.2 6.1 0.433 2.434 0.383 4.35-0.15 5.75-0.233 0.7-0.633 1.4-1.2 2.1-0.667 0.855-1.476 1.472-2.425 1.85 0.391-0.144 0.799-0.327 1.225-0.55z" clip-rule="evenodd" fill-rule="evenodd"/>
</symbol>
<symbol id="au" viewBox="0 -16.457 7 16.457">
		<path d="m1.25-12.15c-0.6 1.767-1.017 5.817-1.25 12.15l0.3-0.15c0.533-0.3 1.117-0.75 1.75-1.35 1.3-1.267 2.233-2.717 2.8-4.35 0.6-1.633 0.767-3.433 0.5-5.4-0.133-1-0.333-1.833-0.6-2.5-0.167-1.5 0.083-2.25 0.75-2.25h1.5l-0.1-0.2c-0.7-0.2-1.267-0.283-1.7-0.25-0.767 0.067-1.684 0.684-2.75 1.85-0.467 0.667-0.867 1.483-1.2 2.45z" clip-rule="evenodd" fill-rule="evenodd"/>
</symbol>
<symbol id="av" viewBox="0 -1.167 7.9 1.167">
		<path d="m0-0.6c0.967 0.434 1.833 0.417 2.6-0.05 0.167-0.1 0.316-0.083 0.45 0.05 0.167 0.167 0.367 0.25 0.6 0.25 0.5 0 0.967-0.083 1.4-0.25 0.2 0 1.15 0.2 2.85 0.6-0.067-0.333-0.333-0.583-0.8-0.75-0.733-0.333-2.15-0.467-4.25-0.4-1.3 0.033-2.25 0.217-2.85 0.55z" clip-rule="evenodd" fill-rule="evenodd"/>
</symbol>
<symbol id="aw" viewBox="0.011 -11.1 15.644 11.1">
			<radialGradient id="ah" cx="-924.86" cy="-1053.3" r="10.1" gradientTransform="matrix(.9926 -.1213 -.1213 -.9926 795.77 -1160.3)" gradientUnits="userSpaceOnUse">
			<stop stop-color="#fff" offset="0"/>
			<stop stop-color="#fff" stop-opacity="0" offset="1"/>
		</radialGradient>
		<path d="m15.65-4.1c0.033-0.4-0.083-0.833-0.35-1.3l-0.15 0.95-0.35 0.7 0.15-1.1c0.066-0.467-0.034-1.15-0.3-2.05l0.05 1.25c0 0.3-0.117 0.667-0.35 1.1l-0.35 0.6c0.133-0.566 0.15-1.083 0.05-1.55l-0.25-1.2c-0.167 0.6-0.267 1.184-0.3 1.75-0.033 0.367-0.167 0.7-0.4 1l-0.35 0.4-0.1-1.9c-0.066-0.767-0.217-1.417-0.45-1.95-0.1 0.433-0.167 0.9-0.2 1.4-0.033 0.3-0.167 0.667-0.4 1.1l-0.3 0.5 0.05-2c0-0.633-0.117-1.533-0.35-2.7l-0.2 2.75c-0.033 0.467-0.133 0.883-0.3 1.25l-0.2 0.4-0.3-1.9-0.05 0.9c0 0.233-0.083 0.534-0.25 0.9l-0.25 0.5-1.1-3.75c0 0.7-0.05 1.4-0.15 2.1-0.067 0.434-0.167 0.867-0.3 1.3l-0.2 0.55-0.65-2.5-0.75 2.45-0.25-1.75-0.3 0.5-0.3 1.4-0.05-1.4c0.033-0.533 0.117-1 0.25-1.4l-0.45 0.85c-0.2 0.3-0.367 0.783-0.5 1.45l-0.15 0.9c-0.167-0.233-0.333-0.617-0.5-1.15-0.167-0.5-0.2-1.1-0.1-1.8-0.1 0.2-0.2 0.55-0.3 1.05l-0.05 2.1c-0.167-0.2-0.467-1.067-0.9-2.6-0.4-1.533-0.233-3.233 0.5-5.1-0.2 0.167-0.483 1.133-0.85 2.9s-0.417 3.383-0.15 4.85c-0.2-0.4-0.35-0.867-0.45-1.4-0.133-0.533-0.133-1.167 0-1.9-0.167 0.267-0.283 0.733-0.35 1.4-0.033 0.667 0.05 1.45 0.25 2.35-0.4-1.033-0.65-2.2-0.75-3.5-0.1-1.267 0.15-2.35 0.75-3.25-0.533 0.4-0.9 1.467-1.1 3.2-0.167 1.7-0.066 2.934 0.3 3.7l-0.3-0.45c-0.233-0.333-0.383-0.85-0.45-1.55-0.133 0.3-0.117 0.917 0.05 1.85 0.133 0.933 0.567 1.667 1.3 2.2l-0.4-0.6c-0.167-0.2-0.3-0.467-0.4-0.8l0.45 0.6c0.133 0.2 0.283 0.333 0.45 0.4l-0.25-0.6c-0.133-0.233-0.133-0.45 0-0.65 0.133 0.333 0.317 0.667 0.55 1 0.2 0.333 0.467 0.55 0.8 0.65-0.2-0.267-0.367-0.6-0.5-1-0.167-0.367-0.233-0.633-0.2-0.8l0.65 1.05c0.267 0.433 0.517 0.717 0.75 0.85l-0.25-0.85c-0.133-0.433-0.117-0.767 0.05-1l0.75 1.25c0.367 0.467 0.733 0.817 1.1 1.05l-0.6-1.15c-0.233-0.433-0.333-0.75-0.3-0.95l0.45 0.85c0.233 0.367 0.517 0.667 0.85 0.9l-0.2-0.8c-0.1-0.4-0.117-0.767-0.05-1.1l0.4 0.8c0.167 0.4 0.534 0.917 1.1 1.55-0.067-0.1-0.183-0.517-0.35-1.25-0.133-0.7-0.2-1.233-0.2-1.6l0.7 1.3c0.267 0.467 0.567 0.767 0.9 0.9l-0.35-0.55c-0.067-0.167-0.1-0.5-0.1-1 0-0.233 0.017-0.45 0.05-0.65l0.55 1.1c0.267 0.6 0.717 1.2 1.35 1.8l-0.45-1.15c-0.133-0.467-0.133-0.95 0-1.45l0.9 0.95c-0.066-0.333-0.1-0.684-0.1-1.05-0.033-0.367 0.034-0.566 0.2-0.6 0.3 0.633 0.483 1.117 0.55 1.45 0.034 0.333 0.217 0.733 0.55 1.2-0.1-0.434-0.133-0.9-0.1-1.4 0.067-0.533 0.217-0.95 0.45-1.25 0.1 0.233 0.117 0.633 0.05 1.2l-0.2 1.15 0.65-1 0.45-1.05c0.133 0.2 0.167 0.433 0.1 0.7l-0.5 1.05 0.8-0.7 0.8-0.95c-0.1 0.5-0.3 0.983-0.6 1.45l-0.8 1.1 0.55-0.3c0.433-0.267 0.8-0.533 1.1-0.8 0.433-0.4 0.767-0.983 1-1.75 0.1 0.4 0.066 0.85-0.1 1.35-0.067 0.367-0.2 0.684-0.4 0.95l1-1.15c0.367-0.5 0.55-1.183 0.55-2.05z" clip-rule="evenodd" fill="url(#ah)" fill-rule="evenodd"/>
</symbol>
<symbol id="ax" viewBox="0 -20.011 16.998 20.011">
		<path d="m13.6-0.9c2.533-1.7 3.65-4.333 3.35-7.9-0.233-3-1.233-5.65-3-7.95-1.267-1.667-2.284-2.5-3.05-2.5-0.7 0.3-1.316 0.333-1.85 0.1-1.067-0.5-1.917-0.783-2.55-0.85-0.9-0.067-1.767 0.167-2.6 0.7-0.367 0.233-0.933 0.283-1.7 0.15-0.733-0.1-1.417 0.117-2.05 0.65l-0.15 1.45 0.3-1c0.133-0.4 0.367-0.6 0.7-0.6l-0.35 1 0.05 1.4 0.2-0.7c0.067-0.367 0.2-0.533 0.4-0.5v0.35l0.25 1.35 0.3-1.75c0.133-0.533 0.316-0.733 0.55-0.6l-0.05 0.7 0.15 0.8 0.3-1.35c0.133-0.433 0.284-0.483 0.45-0.15l-0.1 1.6c0 0.4 0.067 0.8 0.2 1.2l0.15 0.45 0.05-2.2c0-0.667 0.25-1.083 0.75-1.25-0.133 0.4-0.2 0.783-0.2 1.15l0.1 0.9 0.2-1.3c0.1-0.3 0.283-0.534 0.55-0.7l-0.05 1.6c0 0.3 0.1 0.717 0.3 1.25l0.3 0.7 0.05-2.35c0.034-0.6 0.133-0.983 0.3-1.15l0.1 0.9c0.033 0.3 0.083 0.55 0.15 0.75l0.15 0.2 0.05-1.2c0-0.367 0.083-0.717 0.25-1.05 0.1 0.5 0.284 1.1 0.55 1.8 0.167 0.4 0.383 0.816 0.65 1.25l0.35 0.55-0.5-3.15 0.45 0.65c0.188 0.25 0.421 0.659 0.7 1.225-0.06 0.743-0.11 1.518-0.15 2.325-0.133 2.667 0.567 4.983 2.1 6.95 0.633 0.8 1.583 0.533 2.85-0.8 0.667-0.667 1.25-1.417 1.75-2.25 0.567 2.267 0.684 4.15 0.35 5.65-0.2 0.733-0.533 1.433-1 2.1-0.767 1.1-1.733 1.867-2.9 2.3 0.433-0.133 1.05-0.433 1.85-0.9z" clip-rule="evenodd" fill-rule="evenodd"/>
</symbol>
<symbol id="ay" viewBox="-0.012 -0.35 2.641 0.356">
		<path d="m2.1-0.05c0.767-0.2 0.7-0.233-0.2-0.1-0.333 0.033-0.867-0.033-1.6-0.2l-0.2 0.05c-0.1 0-0.133 0.017-0.1 0.05 0.067 0.033 0.2 0.067 0.4 0.1 0.767 0.167 1.333 0.2 1.7 0.1z" clip-rule="evenodd" fill="#fff" fill-rule="evenodd"/>
</symbol>
<symbol id="az" viewBox="0.005 -0.4 2.576 0.406">
		<path d="m2.25-0.05c0.5-0.167 0.433-0.233-0.2-0.2-0.367 0.067-0.933 0.017-1.7-0.15h-0.2c-0.267 0.066-0.167 0.15 0.3 0.25 0.833 0.167 1.433 0.2 1.8 0.1z" clip-rule="evenodd" fill="#fff" fill-rule="evenodd"/>
</symbol>
<symbol id="ba" viewBox="0 -1.167 7.85 1.167">
		<path d="m0-0.6c0.933 0.4 1.783 0.383 2.55-0.05 0.167-0.1 0.317-0.083 0.45 0.05 0.167 0.167 0.367 0.25 0.6 0.25 0.5 0 0.967-0.083 1.4-0.25 0.2 0 1.15 0.2 2.85 0.6-0.1-0.333-0.383-0.583-0.85-0.75-0.733-0.333-2.133-0.467-4.2-0.4-1.267 0.033-2.2 0.217-2.8 0.55z" clip-rule="evenodd" fill-rule="evenodd"/>
</symbol>
<symbol id="bb" viewBox="-0.014 -10.9 15.57 10.9">
			<radialGradient id="ai" cx="-923.63" cy="-1051.6" r="10.022" gradientTransform="matrix(.9926 -.1211 -.1196 -.9805 796.43 -1145.6)" gradientUnits="userSpaceOnUse">
			<stop stop-color="#fff" offset="0"/>
			<stop stop-color="#fff" stop-opacity="0" offset="1"/>
		</radialGradient>
		<path d="m15.55-4.05c0.034-0.4-0.083-0.817-0.35-1.25l-0.2 0.9c-0.033 0.2-0.1 0.367-0.2 0.5l-0.15 0.2 0.2-1.05c0.033-0.5-0.083-1.183-0.35-2.05 0.067 0.367 0.083 0.783 0.05 1.25 0 0.3-0.1 0.667-0.3 1.1l-0.35 0.55 0.05-1.5-0.3-1.2-0.3 1.7c-0.033 0.566-0.283 1.033-0.75 1.4l-0.1-1.9c-0.033-0.7-0.167-1.333-0.4-1.9-0.1 0.433-0.167 0.9-0.2 1.4-0.033 0.3-0.167 0.65-0.4 1.05l-0.3 0.5 0.05-1.95c-0.033-0.6-0.15-1.483-0.35-2.65l-0.2 2.7c-0.034 0.467-0.133 0.867-0.3 1.2l-0.2 0.4-0.3-1.85-0.05 0.85c0 0.267-0.083 0.583-0.25 0.95l-0.25 0.45-1.1-3.65c0 0.667-0.05 1.35-0.15 2.05l-0.45 1.8-0.7-2.45c0 0.167-0.067 0.4-0.2 0.7l-0.5 1.7-0.2-0.75c-0.067-0.467-0.083-0.783-0.05-0.95l-0.3 0.5c-0.1 0.2-0.183 0.483-0.25 0.85l-0.05 0.5-0.1-1.35 0.25-1.35-0.45 0.8c-0.167 0.3-0.317 0.767-0.45 1.4l-0.2 0.9c-0.133-0.233-0.283-0.6-0.45-1.1-0.167-0.533-0.2-1.133-0.1-1.8-0.1 0.2-0.2 0.55-0.3 1.05l-0.05 2.05c-0.167-0.2-0.467-1.05-0.9-2.55-0.4-1.5-0.233-3.167 0.5-5-0.2 0.167-0.483 1.117-0.85 2.85-0.333 1.733-0.367 3.317-0.1 4.75-0.2-0.4-0.367-0.867-0.5-1.4s-0.133-1.15 0-1.85c-0.133 0.267-0.233 0.733-0.3 1.4-0.066 0.667 0 1.433 0.2 2.3-0.4-1.033-0.65-2.183-0.75-3.45-0.067-1.233 0.183-2.3 0.75-3.2-0.533 0.433-0.883 1.483-1.05 3.15s-0.083 2.883 0.25 3.65l-0.3-0.45c-0.2-0.333-0.35-0.85-0.45-1.55-0.1 0.3-0.083 0.917 0.05 1.85 0.167 0.9 0.6 1.6 1.3 2.1-0.1-0.2-0.233-0.383-0.4-0.55s-0.283-0.417-0.35-0.75l0.45 0.6c0.133 0.167 0.283 0.283 0.45 0.35l-0.3-0.6c-0.133-0.233-0.133-0.45 0-0.65l0.55 1c0.233 0.333 0.5 0.55 0.8 0.65l-0.5-0.95c-0.133-0.4-0.184-0.667-0.15-0.8l0.6 1c0.267 0.433 0.517 0.717 0.75 0.85l-0.25-0.85c-0.1-0.4-0.083-0.733 0.05-1 0.167 0.367 0.417 0.783 0.75 1.25 0.367 0.467 0.733 0.817 1.1 1.05l-0.6-1.15c-0.233-0.4-0.333-0.7-0.3-0.9l0.45 0.8c0.233 0.367 0.5 0.667 0.8 0.9l-0.15-0.8c-0.1-0.4-0.117-0.767-0.05-1.1l0.4 0.8c0.167 0.4 0.517 0.917 1.05 1.55-0.066-0.1-0.167-0.517-0.3-1.25-0.167-0.7-0.233-1.217-0.2-1.55l0.65 1.25c0.3 0.433 0.617 0.717 0.95 0.85l-0.35-0.5c-0.1-0.167-0.133-0.483-0.1-0.95 0-0.233 0.017-0.45 0.05-0.65l0.5 1.05c0.3 0.6 0.75 1.2 1.35 1.8l-0.45-1.2c-0.133-0.433-0.133-0.9 0-1.4l0.25 0.3 0.65 0.65c-0.066-0.333-0.1-0.684-0.1-1.05-0.034-0.333 0.033-0.517 0.2-0.55 0.3 0.633 0.483 1.1 0.55 1.4 0.033 0.333 0.216 0.717 0.55 1.15-0.1-0.4-0.133-0.85-0.1-1.35s0.184-0.9 0.45-1.2c0.1 0.233 0.1 0.617 0 1.15l-0.15 1.1 0.65-0.95 0.4-1c0.167 0.2 0.2 0.417 0.1 0.65-0.1 0.4-0.25 0.75-0.45 1.05l0.75-0.7c0.333-0.3 0.617-0.6 0.85-0.9-0.1 0.467-0.317 0.934-0.65 1.4l-0.75 1.1 0.55-0.3c0.434-0.267 0.783-0.533 1.05-0.8 0.433-0.4 0.783-0.966 1.05-1.7 0.067 0.367 0.033 0.8-0.1 1.3-0.1 0.367-0.25 0.684-0.45 0.95l1-1.1c0.333-0.467 0.533-1.15 0.6-2.05z" clip-rule="evenodd" fill="url(#ai)" fill-rule="evenodd"/>
</symbol>
<symbol id="bc" viewBox="0 -19.624 16.848 19.624">
		<path d="m8.375-17.75c0.122 0.138 0.263 0.289 0.425 0.45-0.047 0.029-0.098 0.063-0.15 0.1-0.029-0.092-0.063-0.175-0.1-0.25-0.064-0.128-0.123-0.228-0.175-0.3zm-0.2 0.85c-0.169 0.107-0.336 0.216-0.5 0.325l-0.175-1.225 0.5 0.65c0.054 0.072 0.112 0.155 0.175 0.25zm-2.675 0.2c0.033-0.6 0.133-0.983 0.3-1.15l0.1 0.9c0.033 0.267 0.083 0.5 0.15 0.7l0.15 0.25 0.05-1.2c0-0.367 0.083-0.7 0.25-1 0.1 0.467 0.283 1.034 0.55 1.7 0.036 0.086 0.078 0.169 0.125 0.25-0.588 0.393-1.155 0.792-1.7 1.2l0.025-1.65zm8 15.8c2.5-1.667 3.6-4.25 3.3-7.75-0.233-2.934-1.216-5.533-2.95-7.8-1.267-1.6-2.267-2.4-3-2.4-0.7 0.267-1.317 0.283-1.85 0.05-1.067-0.467-1.917-0.733-2.55-0.8-0.9-0.1-1.767 0.117-2.6 0.65-0.333 0.233-0.9 0.284-1.7 0.15-0.7-0.1-1.367 0.117-2 0.65l-0.15 1.4 0.3-0.95c0.133-0.4 0.367-0.6 0.7-0.6l-0.35 1 0.05 1.35 0.2-0.7c0.067-0.367 0.184-0.533 0.35-0.5v0.35l0.3 1.35 0.25-1.7c0.133-0.533 0.333-0.733 0.6-0.6l-0.05 0.7 0.15 0.75 0.3-1.3c0.133-0.4 0.267-0.45 0.4-0.15l-0.05 1.6c0 0.4 0.05 0.783 0.15 1.15l0.15 0.45 0.05-2.2c0-0.633 0.25-1.033 0.75-1.2-0.1 0.4-0.15 0.784-0.15 1.15l0.05 0.85 0.25-1.25c0.067-0.3 0.233-0.533 0.5-0.7v1.55c-0.033 0.3 0.05 0.717 0.25 1.25l0.1 0.2c-0.137 0.102-0.271 0.202-0.4 0.3-2.467 1.934-2.684 3.633-0.65 5.1 2.433 1.767 5 2.233 7.7 1.4 1.333-0.4 2.434-0.983 3.3-1.75 0.6 2.233 0.7 4.067 0.3 5.5-0.133 0.667-0.45 1.367-0.95 2.1-0.733 1.067-1.7 1.817-2.9 2.25 0.433-0.133 1.05-0.433 1.85-0.9z" clip-rule="evenodd" fill-rule="evenodd"/>
</symbol>
<symbol id="bd" viewBox="0.017 -0.35 2.399 0.356">
		<path d="m2.05-0.05c0.533-0.167 0.483-0.217-0.15-0.15-0.333 0.067-0.867 0.017-1.6-0.15h-0.2c-0.167 0.033-0.083 0.1 0.25 0.2 0.767 0.167 1.333 0.2 1.7 0.1z" clip-rule="evenodd" fill="#fff" fill-rule="evenodd"/>
</symbol>
<symbol id="bj" viewBox="0 -1.268 7.25 1.238">
		<path d="m7.25-0.5l-0.9-0.4c-0.767-0.3-1.867-0.417-3.3-0.35-1.367 0.033-2.383 0.25-3.05 0.65 0 0.167 0.067 0.317 0.2 0.45 0.2 0.2 0.55 0.15 1.05-0.15 0.2-0.133 0.617-0.2 1.25-0.2 0.333 0 0.817 0.017 1.45 0.05 0.533 0 1.033-0.083 1.5-0.25l1.8 0.2z" clip-rule="evenodd" fill-rule="evenodd"/>
</symbol>
		<radialGradient id="aj" cx="30.516" cy="-11.79" r="15.212" gradientTransform="matrix(.6175 .5086 .5077 -.6164 11.983 -.998)" gradientUnits="userSpaceOnUse">
		<stop stop-color="#C73431" offset="0"/>
		<stop stop-color="#6E1A00" offset="1"/>
	</radialGradient>
	<path d="m33.64 17.91c2 1.333 2.88 3.4 2.64 6.2-0.187 2.347-0.973 4.427-2.359 6.24-1.014 1.279-1.813 1.92-2.4 1.92-0.56-0.213-1.054-0.227-1.48-0.04-0.853 0.373-1.532 0.587-2.039 0.641-0.721 0.079-1.414-0.094-2.08-0.521-0.773-0.026-1.373-0.066-1.8-0.12-0.827-0.054-1.8-0.933-2.921-2.64-1.466-2.294-2.079-4.641-1.839-7.04 0.213-2.187 1.013-3.693 2.4-4.52 0.933-0.534 1.96-0.827 3.08-0.88 0.64-0.027 1.48 0 2.52 0.08 1.2-0.027 2.427-0.094 3.68-0.2 0.851 0 1.718 0.293 2.598 0.88z" clip-rule="evenodd" fill="url(#aj)" fill-rule="evenodd"/>
		<use transform="matrix(.8 0 0 -.8 28.9 17.3)" x="0.017" y="-0.35" width="2.399" height="0.356" enable-background="new" opacity=".6094" xlink:href="#bd"/>
		<use transform="matrix(.8 0 0 -.8 22.85 17.2)" y="-19.624" width="16.848" height="19.624" enable-background="new" opacity=".1719" xlink:href="#bc"/>
		<use transform="matrix(.8 0 0 -.8 19.9 18.8)" x="-0.014" y="-10.9" width="15.57" height="10.9" enable-background="new" opacity=".3594" xlink:href="#bb"/>
		<use transform="matrix(.8 0 0 -.8 25.2 17.3)" y="-1.167" width="7.85" height="1.167" enable-background="new" opacity=".3086" xlink:href="#ba"/>
		<linearGradient id="ak" x1="39.16" x2="37.285" y1="3.0479" y2="3.4704" gradientTransform="matrix(.8 0 0 .8 6.1035e-5 13.55)" gradientUnits="userSpaceOnUse">
		<stop stop-color="#69A815" offset="0"/>
		<stop stop-color="#508010" offset="1"/>
	</linearGradient>
	<path d="m32.199 14.39c-0.053 0.48-0.213 0.987-0.479 1.521-0.56 1.066-1.399 1.72-2.521 1.959l-1.56 0.24c-0.106 0.053-0.133-0.067-0.08-0.36 0.133-0.826 0.987-1.413 2.561-1.76 0.959-0.187 1.653-0.72 2.079-1.6z" clip-rule="evenodd" fill="url(#ak)" fill-rule="evenodd"/>
		<linearGradient id="al" x1="38.181" x2="36.436" y1="4.4004" y2="2.1961" gradientTransform="matrix(.8 0 0 .8 6.1035e-5 13.55)" gradientUnits="userSpaceOnUse">
		<stop stop-color="#69A815" offset="0"/>
		<stop stop-color="#508010" offset="1"/>
	</linearGradient>
	<path d="m30.12 15.99c0.959-0.187 1.653-0.72 2.079-1.6v0.04c-0.399 0.934-1.093 1.613-2.079 2.04-0.934 0.4-1.521 0.667-1.761 0.8-0.399 0.24-0.667 0.507-0.8 0.8-0.026-0.027-0.026-0.133 0-0.32 0.133-0.827 0.988-1.414 2.561-1.76z" clip-rule="evenodd" fill="url(#al)" fill-rule="evenodd"/>
	<path d="m25.96 21.23c0.239 0.187 0.133 0.307-0.32 0.359-0.374 0.027-0.773 0.014-1.2-0.04-0.826-0.08-1.4-0.16-1.72-0.24-0.507-0.16-0.48-0.334 0.08-0.521 0.507-0.16 1.16-0.106 1.96 0.16 0.213 0.054 0.467 0.106 0.76 0.16 0.187 2e-3 0.333 0.042 0.44 0.122z" clip-rule="evenodd" fill="#fff" fill-rule="evenodd"/>
	<path d="m21.76 20.79c0.267 0.027 0.36 0.093 0.279 0.2-0.16 0.133-0.266 0.213-0.319 0.24-0.054 0.053-0.134 0.066-0.24 0.04-0.133-0.026-0.227-0.093-0.28-0.2-0.08-0.187 0.107-0.28 0.56-0.28z" clip-rule="evenodd" fill="#fff" fill-rule="evenodd"/>
	<path d="m27.6 15.35c-0.026 0.32-0.026 0.747 0 1.28 0.053 0.533 0.12 0.88 0.2 1.04l0.2 0.44h-0.24l-0.16-0.12c-0.427-1.2-0.627-2.12-0.6-2.76 0.026-0.64 0.093-1.134 0.199-1.48v-0.08l0.521 0.08c0.293 0 0.467-0.027 0.52-0.08-0.4 0.693-0.614 1.253-0.64 1.68z" clip-rule="evenodd" fill="#7D6630" fill-rule="evenodd"/>
	<path d="m28.239 13.67c-0.399 0.693-0.613 1.253-0.64 1.68-0.026 0.32-0.026 0.747 0 1.28 0.053 0.533 0.12 0.88 0.2 1.04l0.2 0.44h-0.24l-0.16-0.12-0.36-1.16 0.32 0.8c-0.213-0.907-0.32-1.52-0.32-1.84 0-0.293 0.04-0.56 0.12-0.8v0.64c0 0.347 0.04 0.76 0.12 1.24s0.213 0.84 0.399 1.08c-0.159-0.454-0.253-0.787-0.279-1-0.134-0.987-0.146-1.72-0.04-2.2l0.12-1h0.04c0.294 0 0.468-0.027 0.52-0.08z" clip-rule="evenodd" fill="#614F25" fill-rule="evenodd"/>
	<path d="m27.52 14.03c0.054 0.027-0.013 0.187-0.199 0.48 0 0.32-0.027 0.627-0.081 0.92 0 0.053-0.013 0.28-0.04 0.68 0 0.187-0.013 0.173-0.039-0.04-0.081-0.56-0.054-1.16 0.079-1.8 0.054-0.187 0.094-0.293 0.12-0.32 0.027-0.027 0.079 0 0.16 0.08z" clip-rule="evenodd" fill="#C9A44D" fill-rule="evenodd"/>
	<path d="m27.96 13.83c-0.187 0.026-0.334 0.026-0.44 0l-0.32-0.16 0.521-0.12c0.56-0.054 0.733-0.013 0.52 0.12-0.081 0.106-0.175 0.16-0.281 0.16z" clip-rule="evenodd" fill="#C9A44D" fill-rule="evenodd"/>
		<radialGradient id="am" cx="16.522" cy="9.1294" r="15.416" gradientTransform="matrix(.6175 .5086 .5086 -.6175 -9.2853 24.825)" gradientUnits="userSpaceOnUse">
		<stop stop-color="#D93936" offset="0"/>
		<stop stop-color="#781C00" offset="1"/>
	</radialGradient>
	<path d="m8.08 22.91c1.227 0 2.48-0.054 3.76-0.16 0.827 0 1.693 0.293 2.6 0.88 2.027 1.359 2.92 3.466 2.681 6.319-0.187 2.4-0.987 4.521-2.4 6.36-1.013 1.333-1.827 2-2.44 2-0.56-0.24-1.053-0.268-1.48-0.08-0.854 0.399-1.533 0.627-2.04 0.68-0.721 0.054-1.414-0.133-2.08-0.56-0.267-0.187-0.587-0.253-0.96-0.2-0.533 0.08-0.827 0.12-0.88 0.12-0.827-0.054-1.8-0.96-2.92-2.72-1.493-2.348-2.12-4.733-1.88-7.16 0.24-2.24 1.053-3.773 2.44-4.601 0.933-0.56 1.974-0.866 3.12-0.92 0.612-0.025 1.439-0.012 2.479 0.042z" clip-rule="evenodd" fill="url(#am)" fill-rule="evenodd"/>
		<use transform="matrix(.8 0 0 -.8 9.6499 23)" x="-0.012" y="-0.35" width="2.641" height="0.356" enable-background="new" opacity=".6094" xlink:href="#ay"/>
		<use transform="matrix(.8 0 0 -.8 3.5498 22.9)" y="-20.011" width="16.998" height="20.011" enable-background="new" opacity=".1719" xlink:href="#ax"/>
		<use transform="matrix(.8 0 0 -.8 .6001 24.55)" x="0.011" y="-11.1" width="15.644" height="11.1" enable-background="new" opacity=".3594" xlink:href="#aw"/>
		<use transform="matrix(.8 0 0 -.8 5.8999 23)" y="-1.167" width="7.9" height="1.167" enable-background="new" opacity=".3086" xlink:href="#av"/>
		<linearGradient id="an" x1="15.175" x2="13.274" y1="10.148" y2="10.57" gradientTransform="matrix(.8 0 0 .8 6.1035e-5 13.55)" gradientUnits="userSpaceOnUse">
		<stop stop-color="#69A815" offset="0"/>
		<stop stop-color="#508010" offset="1"/>
	</linearGradient>
	<path d="m13 20.03c-0.054 0.507-0.213 1.026-0.48 1.56-0.56 1.093-1.4 1.76-2.52 2l-1.6 0.24c-0.106 0.053-0.133-0.067-0.08-0.36 0.134-0.854 1-1.44 2.6-1.76 0.96-0.214 1.653-0.773 2.08-1.68z" clip-rule="evenodd" fill="url(#an)" fill-rule="evenodd"/>
		<linearGradient id="be" x1="14.177" x2="12.409" y1="11.524" y2="9.2938" gradientTransform="matrix(.8 0 0 .8 6.1035e-5 13.55)" gradientUnits="userSpaceOnUse">
		<stop stop-color="#69A815" offset="0"/>
		<stop stop-color="#508010" offset="1"/>
	</linearGradient>
	<path d="m10.92 21.71c0.96-0.214 1.653-0.773 2.08-1.68v0.04c-0.48 0.986-1.174 1.68-2.08 2.08-0.907 0.374-1.507 0.653-1.8 0.84-0.4 0.24-0.666 0.507-0.8 0.8-0.026-0.026-0.026-0.133 0-0.319 0.134-0.855 1-1.442 2.6-1.761z" clip-rule="evenodd" fill="url(#be)" fill-rule="evenodd"/>
	<path d="m6.72 27.029c0.24 0.188 0.134 0.307-0.32 0.36-0.4 0.026-0.8 0.014-1.2-0.04-0.854-0.08-1.439-0.16-1.76-0.24-0.48-0.16-0.453-0.347 0.08-0.56 0.426-0.134 1.08-0.08 1.96 0.16 0.24 0.079 0.507 0.133 0.8 0.159 0.187 0.028 0.333 0.081 0.44 0.161z" clip-rule="evenodd" fill="#fff" fill-rule="evenodd"/>
	<path d="m2.48 26.59c0.267 0.026 0.36 0.08 0.28 0.16-0.054 0.053-0.16 0.133-0.32 0.239-0.053 0.08-0.133 0.106-0.24 0.08-0.133-0.026-0.227-0.093-0.28-0.2-0.16-0.239 0.026-0.333 0.56-0.279z" clip-rule="evenodd" fill="#fff" fill-rule="evenodd"/>
	<path d="m8.56 23.35l0.2 0.48h-0.24l-0.16-0.12c-0.453-1.228-0.653-2.16-0.6-2.8 0.133-0.96 0.2-1.467 0.2-1.52v-0.08l0.48 0.08c0.32 0 0.506-0.027 0.56-0.08l-0.32 0.6c-0.213 0.453-0.334 0.827-0.36 1.12-0.026 0.347-0.013 0.773 0.04 1.28 0.053 0.559 0.12 0.907 0.2 1.04z" clip-rule="evenodd" fill="#7D6630" fill-rule="evenodd"/>
	<path d="m9 19.31l-0.32 0.6c-0.213 0.453-0.334 0.827-0.36 1.12-0.026 0.347-0.013 0.773 0.04 1.28 0.053 0.56 0.12 0.907 0.2 1.04l0.2 0.48h-0.24l-0.16-0.12-0.36-1.2 0.08 0.24c0.053 0.213 0.133 0.413 0.24 0.6-0.214-0.934-0.32-1.56-0.32-1.88l0.12-0.8v0.641c0 0.346 0.041 0.773 0.12 1.28 0.08 0.479 0.214 0.84 0.4 1.08-0.186-0.453-0.28-0.787-0.28-1-0.106-1.067-0.12-1.827-0.04-2.28l0.12-1c0.32-1e-3 0.506-0.028 0.56-0.081z" clip-rule="evenodd" fill="#614F25" fill-rule="evenodd"/>
	<path d="m8.28 19.669c0.053 0.027-0.013 0.2-0.2 0.52l-0.08 0.921c0 0.053-0.013 0.28-0.04 0.68 0 0.187-0.014 0.173-0.04-0.04-0.08-0.586-0.053-1.2 0.08-1.84 0.053-0.293 0.146-0.373 0.28-0.241z" clip-rule="evenodd" fill="#C9A44D" fill-rule="evenodd"/>
	<path d="m8.72 19.47h-0.48l-0.28-0.16 0.12-0.08c0.106-0.054 0.24-0.08 0.4-0.08 0.507 0 0.68 0.053 0.52 0.16-0.107 0.107-0.2 0.16-0.28 0.16z" clip-rule="evenodd" fill="#C9A44D" fill-rule="evenodd"/>
		<radialGradient id="bf" cx="41.86" cy="-6.4575" r="15.838" gradientTransform="matrix(.6591 .4533 .4533 -.6591 5.8548 5.0373)" gradientUnits="userSpaceOnUse">
		<stop stop-color="#E63C39" offset="0"/>
		<stop stop-color="#821E00" offset="1"/>
	</radialGradient>
	<path d="m32.72 23.229c1.227-0.106 2.493-0.267 3.8-0.479 0.854-0.08 1.76 0.146 2.72 0.68 2.187 1.2 3.294 3.28 3.32 6.24 0 2.479-0.64 4.72-1.92 6.72-0.906 1.439-1.667 2.187-2.28 2.239-0.587-0.187-1.094-0.173-1.521 0.041-0.853 0.453-1.532 0.732-2.039 0.84-0.721 0.133-1.44 0.013-2.16-0.36-0.827 0.053-1.467 0.08-1.92 0.08-0.827 0.027-1.894-0.813-3.2-2.52-1.733-2.268-2.586-4.653-2.56-7.16 0.026-2.294 0.706-3.934 2.04-4.92 0.934-0.667 1.973-1.08 3.12-1.24 0.666-0.08 1.532-0.134 2.6-0.161z" clip-rule="evenodd" fill="url(#bf)" fill-rule="evenodd"/>
		<use transform="matrix(.8 0 0 -.8 26.4 26.05)" y="-16.457" width="7" height="16.457" enable-background="new" opacity=".2383" xlink:href="#au"/>
		<use transform="matrix(.8 0 0 -.8 29.3 22.8)" y="-20.966" width="16.6" height="20.716" enable-background="new" opacity=".1719" xlink:href="#at"/>
		<use transform="matrix(.8 0 0 -.8 25.5 24.9)" x="-0.029" y="-11.9" width="16.074" height="11.9" enable-background="new" opacity=".3594" xlink:href="#as"/>
		<use transform="matrix(.8 0 0 -.8 30.3 23.4)" y="-1.118" width="6.85" height="1.118" enable-background="new" opacity=".3086" xlink:href="#ar"/>
	<path d="m31.64 27.59c0.267 0.16 0.173 0.279-0.28 0.359-0.399 0.08-0.813 0.107-1.239 0.08-0.881 0-1.494-0.026-1.841-0.08-0.24-0.053-0.346-0.133-0.319-0.239 0-0.106 0.119-0.214 0.36-0.32 0.426-0.187 1.105-0.187 2.039 0 0.24 0.054 0.52 0.08 0.84 0.08 0.187 0 0.333 0.04 0.44 0.12z" clip-rule="evenodd" fill="#fff" fill-rule="evenodd"/>
	<path d="m27.279 27.47c0.268 0 0.36 0.066 0.28 0.2-0.134 0.133-0.227 0.227-0.28 0.279-0.053 0.054-0.146 0.08-0.279 0.08-0.107-0.026-0.2-0.093-0.28-0.199-0.134-0.187 0.053-0.307 0.559-0.36z" clip-rule="evenodd" fill="#fff" fill-rule="evenodd"/>
		<use transform="matrix(.8 0 0 -.8 34.3 23.05)" x="-0.006" y="-0.55" width="2.521" height="0.522" enable-background="new" opacity=".6094" xlink:href="#aq"/>
	<path d="m33.039 24.029c-0.56-1.199-0.853-2.133-0.88-2.799-0.026-0.4-0.013-0.773 0.04-1.12l0.04-0.44v-0.08l0.521 0.041c0.319-0.054 0.506-0.107 0.56-0.16l-0.24 0.64c-0.187 0.479-0.279 0.866-0.279 1.16 0 0.347 0.053 0.8 0.16 1.36 0.079 0.56 0.173 0.906 0.279 1.04l0.24 0.439-0.28 0.04-0.161-0.121z" clip-rule="evenodd" fill="#7D6630" fill-rule="evenodd"/>
	<path d="m33.319 19.47l-0.24 0.64c-0.187 0.479-0.279 0.866-0.279 1.16 0 0.347 0.053 0.8 0.16 1.36 0.079 0.56 0.173 0.906 0.279 1.04l0.24 0.439-0.28 0.04-0.16-0.12-0.399-0.96 0.32 0.601c-0.294-0.934-0.453-1.561-0.48-1.88-0.027-0.187-0.027-0.386 0-0.6l0.08-0.24 0.04 0.64c0 0.267 0.079 0.694 0.239 1.28 0.107 0.507 0.268 0.867 0.48 1.08-0.213-0.426-0.347-0.76-0.399-1-0.054-0.346-0.107-0.666-0.16-0.959-0.081-0.56-0.107-1-0.081-1.32l0.041-1.04h0.04c0.319-0.055 0.506-0.108 0.559-0.161z" clip-rule="evenodd" fill="#614F25" fill-rule="evenodd"/>
	<path d="m32.6 19.91c0.053 0.027 0 0.2-0.16 0.52v0.96c0 0.133 0.013 0.374 0.04 0.72 0.027 0.187 0.013 0.174-0.04-0.04-0.16-0.533-0.2-1.16-0.12-1.88 0.053-0.32 0.146-0.414 0.28-0.28z" clip-rule="evenodd" fill="#C9A44D" fill-rule="evenodd"/>
	<path d="m33.039 19.669l-0.479 0.041-0.32-0.121 0.12-0.08c0.106-0.053 0.24-0.093 0.4-0.12 0.479-0.053 0.666-0.027 0.56 0.08-0.054 0.081-0.147 0.148-0.281 0.2z" clip-rule="evenodd" fill="#C9A44D" fill-rule="evenodd"/>
		<radialGradient id="bg" cx="29.822" cy="2.312" r="16.552" gradientTransform="matrix(.6114 .5159 .5159 -.6114 -2.385 16.377)" gradientUnits="userSpaceOnUse">
		<stop stop-color="#E63C39" offset="0"/>
		<stop stop-color="#821E00" offset="1"/>
	</radialGradient>
	<path d="m19.839 25.35c1.307 0 2.64-0.054 4-0.16 0.934 0.027 1.867 0.36 2.8 1 2.16 1.493 3.094 3.773 2.8 6.84-0.24 2.56-1.133 4.827-2.68 6.8-1.094 1.387-1.96 2.08-2.6 2.08-0.613-0.239-1.147-0.267-1.601-0.08-0.907 0.4-1.64 0.613-2.2 0.641-0.773 0.08-1.521-0.107-2.24-0.561-0.294-0.187-0.627-0.267-1-0.239-0.614 0.079-0.947 0.119-1 0.119-0.88-0.079-1.907-1.066-3.08-2.96-1.573-2.56-2.213-5.133-1.92-7.72 0.267-2.399 1.16-4.04 2.68-4.92 1.013-0.586 2.133-0.906 3.36-0.96 0.668-1e-3 1.562 0.04 2.681 0.12z" clip-rule="evenodd" fill="url(#bg)" fill-rule="evenodd"/>
		<use transform="matrix(.8 0 0 -.8 14.75 25.4)" x="0.05" y="-21.373" width="18.366" height="21.172" enable-background="new" opacity=".1719" xlink:href="#ap"/>
		<use transform="matrix(.8 0 0 -.8 11.75 27.05)" x="-0.039" y="-11.9" width="16.844" height="11.9" enable-background="new" opacity=".3594" xlink:href="#ao"/>
		<use transform="matrix(.8 0 0 -.8 17.25 25.4)" y="-1.268" width="7.25" height="1.238" enable-background="new" opacity=".3086" xlink:href="#bj"/>
		<linearGradient id="bh" x1="16.654" x2="18.661" y1="18.131" y2="18.131" gradientTransform="matrix(.7773 -.1893 .1893 .7773 .00025153 13.55)" gradientUnits="userSpaceOnUse">
		<stop stop-color="#69A815" offset="0"/>
		<stop stop-color="#508010" offset="1"/>
	</linearGradient>
	<path d="m15.6 21.87l0.52 0.84c0.454 0.586 0.987 0.96 1.601 1.12 1.653 0.399 2.546 1.08 2.68 2.039 0.053 0.374 0.013 0.521-0.121 0.44l-1.6-0.28c-1.172-0.293-2.04-1.066-2.6-2.319l-0.48-1.84z" clip-rule="evenodd" fill="url(#bh)" fill-rule="evenodd"/>
		<linearGradient id="bi" x1="23.583" x2="26.55" y1="-9.2539" y2="-9.2539" gradientTransform="matrix(.5055 .6201 -.6201 .5055 -.00022537 13.55)" gradientUnits="userSpaceOnUse">
		<stop stop-color="#69A815" offset="0"/>
		<stop stop-color="#508010" offset="1"/>
	</linearGradient>
	<path d="m17.72 23.83c1.653 0.399 2.546 1.08 2.68 2.039v0.4c-0.134-0.347-0.414-0.653-0.84-0.92-0.187-0.133-0.8-0.467-1.84-1-0.987-0.48-1.694-1.28-2.121-2.4v-0.08l0.52 0.84c0.454 0.587 0.988 0.961 1.601 1.121z" clip-rule="evenodd" fill="url(#bi)" fill-rule="evenodd"/>
	<path d="m18.32 29.75c0.24 0.187 0.106 0.307-0.4 0.359-0.427 0.054-0.854 0.04-1.28-0.04l-1.88-0.28c-0.267-0.079-0.387-0.173-0.36-0.279 0.026-0.106 0.187-0.214 0.48-0.32 0.507-0.133 1.213-0.066 2.12 0.2 0.24 0.08 0.507 0.146 0.8 0.2 0.213 0.026 0.387 0.08 0.52 0.16z" clip-rule="evenodd" fill="#fff" fill-rule="evenodd"/>
	<path d="m13.76 29.189c0.293 0.027 0.387 0.106 0.28 0.24-0.053 0.053-0.16 0.133-0.32 0.24-0.24 0.187-0.44 0.133-0.6-0.16-0.08-0.213 0.133-0.32 0.64-0.32z" clip-rule="evenodd" fill="#fff" fill-rule="evenodd"/>
		<use transform="matrix(.8 0 0 -.8 21.5 25.45)" x="0.005" y="-0.4" width="2.576" height="0.406" enable-background="new" opacity=".6094" xlink:href="#az"/>
	<path d="m20.12 23.31c-0.027 0.347-0.027 0.813 0 1.4 0.053 0.586 0.12 0.96 0.2 1.12l0.24 0.479-0.281 0.04c-0.053 0-0.106-0.026-0.159-0.08l-0.041-0.08c-0.427-1.307-0.627-2.307-0.6-3 0.16-1.014 0.241-1.546 0.241-1.6v-0.12l0.08 0.08c0.107 0.026 0.266 0.04 0.479 0.04 0.32 0 0.521-0.04 0.6-0.12l-0.359 0.64c-0.241 0.507-0.374 0.908-0.4 1.201z" clip-rule="evenodd" fill="#7D6630" fill-rule="evenodd"/>
	<path d="m20.879 21.47l-0.359 0.64c-0.241 0.507-0.374 0.907-0.4 1.2-0.027 0.347-0.027 0.813 0 1.4 0.053 0.586 0.12 0.96 0.2 1.12l0.24 0.479-0.281 0.04c-0.053 0-0.106-0.026-0.159-0.08l-0.041-0.08c-0.133-0.373-0.253-0.8-0.359-1.279l0.08 0.279 0.28 0.641c-0.24-1.014-0.359-1.693-0.359-2.041 0-0.213 0.04-0.426 0.119-0.64l0.081-0.239-0.041 0.68c0 0.399 0.041 0.866 0.12 1.399 0.08 0.534 0.213 0.921 0.4 1.16-0.187-0.479-0.28-0.84-0.28-1.08-0.134-1.12-0.147-1.92-0.041-2.399 0.107-0.427 0.16-0.8 0.16-1.12l0.04 0.04c0.321-1e-3 0.521-0.04 0.6-0.12z" clip-rule="evenodd" fill="#614F25" fill-rule="evenodd"/>
	<path d="m20.08 21.87c0.054 0.026-0.027 0.2-0.24 0.52 0 0.347-0.026 0.68-0.08 1 0 0.054-0.013 0.307-0.04 0.76 0 0.214-0.014 0.2-0.041-0.04-0.08-0.64-0.053-1.307 0.081-2 0.053-0.213 0.106-0.333 0.16-0.36 0.027-0.027 0.08 0.013 0.16 0.12z" clip-rule="evenodd" fill="#C9A44D" fill-rule="evenodd"/>
	<path d="m20.52 21.669h-0.48l-0.319-0.2 0.119-0.08c0.134-0.053 0.294-0.08 0.48-0.08 0.48 0 0.667 0.053 0.56 0.16s-0.227 0.174-0.36 0.2z" clip-rule="evenodd" fill="#C9A44D" fill-rule="evenodd"/>
</svg>